<svg preserveAspectRatio="none" overflow="visible" style="display: block;" width="24" height="24" viewBox="0 0 24 24" fill="none" xmlns="http://www.w3.org/2000/svg">
<g id="Group 13">
<g id="Rectangle 40 Copy 3">
</g>
<path id="Fill 141" fill-rule="evenodd" clip-rule="evenodd" d="M8.2 12C8.2 12.4418 8.55817 12.8 9 12.8H15.4C15.8418 12.8 16.2 12.4418 16.2 12C16.2 11.5582 15.8418 11.2 15.4 11.2H9C8.55817 11.2 8.2 11.5582 8.2 12ZM17 5.6V4.5C17 4.22386 16.7761 4 16.5 4H15.9C15.6239 4 15.4 4.22386 15.4 4.5V5.6H9V4.5C9 4.22386 8.77614 4 8.5 4H7.9C7.62386 4 7.4 4.22386 7.4 4.5V5.6H6.6C5.7116 5.6 5.0076 6.32 5.0076 7.2L5 18.4C5 19.28 5.7116 20 6.6 20H17.8C18.68 20 19.4 19.28 19.4 18.4V7.2C19.4 6.32 18.68 5.6 17.8 5.6H17ZM6.6 9.6H17.8V18.4H6.6V9.6ZM8.2 15.2C8.2 15.6418 8.55817 16 9 16H13C13.4418 16 13.8 15.6418 13.8 15.2C13.8 14.7582 13.4418 14.4 13 14.4H9C8.55817 14.4 8.2 14.7582 8.2 15.2Z" fill="#888888"/>
</g>
</svg>
