<svg width="16" height="16" viewBox="0 0 16 16" fill="none" xmlns="http://www.w3.org/2000/svg">
<path d="M6.48934 1H2.04489C1.55397 1 1.15601 1.39797 1.15601 1.88889V6.33333C1.15601 6.82425 1.55397 7.22222 2.04489 7.22222H6.48934C6.98026 7.22222 7.37823 6.82425 7.37823 6.33333V1.88889C7.37823 1.39797 6.98026 1 6.48934 1Z" fill="#888888"/>
<path d="M14.2671 1H9.82267C9.33175 1 8.93378 1.39797 8.93378 1.88889V6.33333C8.93378 6.82425 9.33175 7.22222 9.82267 7.22222H14.2671C14.758 7.22222 15.156 6.82425 15.156 6.33333V1.88889C15.156 1.39797 14.758 1 14.2671 1Z" fill="#888888"/>
<path d="M14.2671 8.77778H9.82267C9.33175 8.77778 8.93378 9.17575 8.93378 9.66667V14.1111C8.93378 14.602 9.33175 15 9.82267 15H14.2671C14.758 15 15.156 14.602 15.156 14.1111V9.66667C15.156 9.17575 14.758 8.77778 14.2671 8.77778Z" fill="#888888"/>
<path d="M6.48934 8.77778H2.04489C1.55397 8.77778 1.15601 9.17575 1.15601 9.66667V14.1111C1.15601 14.602 1.55397 15 2.04489 15H6.48934C6.98026 15 7.37823 14.602 7.37823 14.1111V9.66667C7.37823 9.17575 6.98026 8.77778 6.48934 8.77778Z" fill="#888888"/>
</svg>
